<?xml version="1.0" encoding="UTF-8" standalone="no"?>
<svg width="96px" height="95px" viewBox="0 0 96 95" version="1.1" xmlns="http://www.w3.org/2000/svg" xmlns:xlink="http://www.w3.org/1999/xlink" xmlns:sketch="http://www.bohemiancoding.com/sketch/ns">
    <!-- Generator: Sketch 3.5.1 (25234) - http://www.bohemiancoding.com/sketch -->
    <title>FACEBOOK Copy</title>
    <desc>Created with Sketch.</desc>
    <defs></defs>
    <g id="MQ" stroke="none" stroke-width="1" fill="none" fill-rule="evenodd" sketch:type="MSPage">
        <g id="MAQUETTE-V3-7" sketch:type="MSArtboardGroup" transform="translate(-502.000000, -533.000000)" fill="#FFFFFF">
            <g id="PART1" sketch:type="MSLayerGroup">
                <g id="FACEBOOK-Copy" transform="translate(502.000000, 533.000000)" sketch:type="MSShapeGroup">
                    <path d="M51.4090909,67.6047288 L51.4089818,50.7708551 L57.2167636,50.7708551 L57.9944727,44.037198 L51.3931636,44.037198 L51.3931636,39.9246692 C51.3931636,38.0184821 51.9291273,36.7194996 54.6969818,36.7194996 L58.2270545,36.7178836 L58.2270545,30.829637 C57.6162545,30.7494808 55.5514909,30.5702068 53.1136364,30.5702068 C48.0241091,30.5702068 44.5908,33.6383351 44.5908,39.2727538 L44.5908,44.0373057 L38.6249455,44.0373057 L38.6249455,50.7707474 L44.5909091,50.7708551 L44.5908,67.6047288 L51.4090909,67.6047288 L51.4090909,67.6047288 Z M14.2519636,80.7334264 C-4.38643636,62.3261647 -4.38643636,32.4824271 14.2520727,14.0750576 C32.8906909,-4.3318809 63.1095273,-4.3318809 81.7481455,14.0750576 C100.386545,32.4823194 100.386436,62.326057 81.7480364,80.7332109 C63.1093091,99.1403649 32.8905818,99.1404727 14.2519636,80.7334264 L14.2519636,80.7334264 Z M16.6622182,78.3527665 C-0.644945455,61.2604323 -0.644836364,33.547944 16.6625455,16.455502 C33.9696,-0.63693991 62.0304,-0.63693991 79.3374545,16.455502 C96.6448364,33.547944 96.6448364,61.2603246 79.3375636,78.3526588 C62.0304,95.4451007 33.9694909,95.4453162 16.6622182,78.3527665 L16.6622182,78.3527665 Z" id="Shape"></path>
                </g>
            </g>
        </g>
    </g>
</svg>